<svg width="100" height="24" viewBox="0 0 100 24" fill="none" xmlns="http://www.w3.org/2000/svg">
    <g clip-path="url(#clip0_644_11309)">
        <path fill-rule="evenodd" clip-rule="evenodd"
            d="M16.3803 9.18C16.4731 9.18 16.5621 9.21688 16.6277 9.28252C16.6934 9.34815 16.7302 9.43717 16.7302 9.53V16.02C16.7302 16.1128 16.6934 16.2018 16.6277 16.2675C16.5621 16.3331 16.4731 16.37 16.3803 16.37H15.3803C15.3348 16.37 15.2897 16.3609 15.2478 16.3432C15.2059 16.3255 15.1679 16.2995 15.1362 16.2669C15.1045 16.2343 15.0797 16.1956 15.0632 16.1532C15.0467 16.1108 15.0389 16.0655 15.0402 16.02V9.53C15.0389 9.48452 15.0467 9.43922 15.0632 9.39681C15.0797 9.3544 15.1045 9.31573 15.1362 9.2831C15.1679 9.25046 15.2059 9.22451 15.2478 9.2068C15.2897 9.18909 15.3348 9.17998 15.3803 9.18H16.3803ZM13.0002 11.08C13.1046 11.08 13.2049 11.1207 13.2796 11.1936C13.3543 11.2665 13.3976 11.3657 13.4002 11.47V15.98C13.3976 16.0843 13.3543 16.1835 13.2796 16.2564C13.2049 16.3293 13.1046 16.37 13.0002 16.37H12.0002C11.949 16.37 11.8983 16.3599 11.851 16.3403C11.8037 16.3207 11.7607 16.292 11.7245 16.2558C11.6883 16.2196 11.6595 16.1766 11.6399 16.1292C11.6203 16.0819 11.6102 16.0312 11.6102 15.98V11.47C11.6102 11.3666 11.6513 11.2674 11.7245 11.1942C11.7976 11.1211 11.8968 11.08 12.0002 11.08H13.0002ZM9.57024 13C9.67023 13.0025 9.76542 13.0434 9.83614 13.1141C9.90686 13.1848 9.94771 13.28 9.95025 13.38V16C9.94764 16.099 9.90645 16.1931 9.83547 16.2623C9.76449 16.3314 9.66931 16.37 9.57024 16.37H8.64025C8.54117 16.37 8.446 16.3314 8.37502 16.2623C8.30404 16.1931 8.26285 16.099 8.26024 16V13.38C8.26278 13.28 8.30363 13.1848 8.37435 13.1141C8.44507 13.0434 8.54026 13.0025 8.64025 13H9.57024ZM17.3902 0C19.398 0.0105796 21.3198 0.816278 22.7349 2.2407C24.1499 3.66511 24.9429 5.59219 24.9403 7.6C26.4337 8.05168 27.716 9.02318 28.5551 10.3386C29.3942 11.654 29.7346 13.2264 29.5146 14.771C29.2946 16.3157 28.5289 17.7305 27.3559 18.7594C26.183 19.7883 24.6804 20.3632 23.1202 20.38H22.1202C22.0248 20.38 21.9332 20.3421 21.8657 20.2746C21.7982 20.207 21.7602 20.1155 21.7602 20.02V19.02C21.7626 18.927 21.8 18.8383 21.8648 18.7715C21.9297 18.7048 22.0173 18.665 22.1103 18.66H23.1103C24.3507 18.6604 25.5435 18.1825 26.4406 17.3257C27.3377 16.469 27.8699 15.2994 27.9266 14.0602C27.9833 12.8211 27.56 11.6078 26.7449 10.6727C25.9298 9.73768 24.7856 9.15289 23.5503 9.04C23.4936 9.0329 23.4414 9.00584 23.4029 8.96369C23.3644 8.92154 23.3422 8.86704 23.3402 8.81V7.61C23.3168 6.04297 22.6811 4.54731 21.5692 3.44287C20.4573 2.33843 18.9574 1.71289 17.3902 1.7C16.0023 1.70459 14.6607 2.20002 13.6029 3.09862C12.545 3.99722 11.8392 5.24105 11.6102 6.61L11.5602 6.99C11.5504 7.07573 11.5092 7.1548 11.4446 7.21201C11.38 7.26923 11.2965 7.30057 11.2102 7.3H8.62024C7.68035 7.34008 6.79055 7.73477 6.12999 8.40459C5.46944 9.07442 5.08721 9.96965 5.06025 10.91C5.06025 10.91 5.06025 11.02 5.06025 11.08C5.06025 11.14 5.06025 11.58 5.06025 11.86C5.06025 11.921 5.03601 11.9795 4.99288 12.0226C4.94975 12.0658 4.89125 12.09 4.83025 12.09C4.0543 12.1023 3.30855 12.3927 2.72863 12.9084C2.14871 13.4241 1.77314 14.1308 1.67025 14.9C1.6552 15.073 1.6552 15.247 1.67025 15.42C1.67169 16.2648 1.99708 17.0769 2.57938 17.689C3.16169 18.301 3.95656 18.6665 4.80025 18.71H16.1603H16.4403C16.9901 18.6507 17.4986 18.3902 17.8678 17.9785C18.2371 17.5668 18.441 17.033 18.4403 16.48V7.61C18.4403 7.51187 18.4792 7.41776 18.5486 7.34837C18.618 7.27899 18.7121 7.24 18.8102 7.24H19.8102C19.8865 7.26602 19.9522 7.31625 19.9974 7.38303C20.0425 7.44982 20.0646 7.52951 20.0602 7.61V16.61C20.014 17.5297 19.6462 18.4039 19.0212 19.0802C18.3961 19.7564 17.5535 20.1917 16.6402 20.31H16.4002H4.93024C3.74717 20.2935 2.60828 19.858 1.71607 19.0809C0.823856 18.3038 0.236134 17.2354 0.0573931 16.0658C-0.121347 14.8962 0.120477 13.7011 0.739873 12.693C1.35927 11.6849 2.31611 10.9291 3.44025 10.56C3.55393 9.2972 4.10276 8.1131 4.99289 7.2102C5.88303 6.30729 7.05919 5.74165 8.32024 5.61H8.45025H9.27025H10.0602C10.4882 3.99596 11.4405 2.56995 12.7674 1.55622C14.0943 0.542503 15.7205 -0.00141643 17.3902 0.0100021V0Z"
            fill="#FFF" />
        <path fill-rule="evenodd" clip-rule="evenodd"
            d="M52.8795 7.43991C51.9851 7.40187 51.1061 7.68253 50.3993 8.23192C49.6924 8.78131 49.2035 9.56374 49.0195 10.4399V10.6399H56.6295C56.509 9.73802 56.0595 8.91247 55.3673 8.32182C54.6751 7.73118 53.7892 7.4171 52.8795 7.43991ZM70.5595 -8.28007e-05C70.6011 -0.00142362 70.6425 0.00560389 70.6812 0.0205814C70.72 0.0355589 70.7554 0.0581775 70.7852 0.0870983C70.8151 0.116019 70.8388 0.15065 70.855 0.188928C70.8712 0.227206 70.8796 0.26835 70.8795 0.309915V14.7599C70.8782 14.9367 70.9119 15.112 70.9786 15.2758C71.0454 15.4395 71.1439 15.5884 71.2685 15.7139C71.393 15.8394 71.5412 15.939 71.7044 16.007C71.8676 16.0749 72.0427 16.1099 72.2195 16.1099H72.4195C72.4901 16.1126 72.5578 16.1386 72.6121 16.1838C72.6663 16.2291 72.7041 16.291 72.7195 16.3599C72.8623 17.1164 73.2279 17.8129 73.7695 18.3599C73.8265 18.421 73.8581 18.5014 73.8581 18.5849C73.8581 18.6684 73.8265 18.7488 73.7695 18.8099C73.7406 18.8387 73.7062 18.8614 73.6685 18.8768C73.6307 18.8923 73.5903 18.9001 73.5495 18.8999H71.9095C70.8487 18.8999 69.8312 18.4785 69.0811 17.7283C68.331 16.9782 67.9095 15.9608 67.9095 14.8999V0.309915C67.9095 0.227698 67.9422 0.148847 68.0003 0.0907108C68.0585 0.0325745 68.1373 -8.28007e-05 68.2195 -8.28007e-05H70.5795H70.5595ZM64.2895 -8.28007e-05C64.3311 -0.00142362 64.3725 0.00560389 64.4112 0.0205814C64.45 0.0355589 64.4854 0.0581775 64.5152 0.0870983C64.5451 0.116019 64.5688 0.15065 64.585 0.188928C64.6012 0.227206 64.6096 0.26835 64.6095 0.309915V14.7599C64.6082 14.9367 64.6419 15.112 64.7087 15.2758C64.7754 15.4395 64.8739 15.5884 64.9984 15.7139C65.123 15.8394 65.2712 15.939 65.4344 16.007C65.5976 16.0749 65.7727 16.1099 65.9495 16.1099H66.1495C66.2205 16.1099 66.2895 16.1334 66.3456 16.1769C66.4017 16.2203 66.4418 16.2812 66.4595 16.3499C66.637 17.1044 67.0173 17.796 67.5595 18.3499C67.6188 18.4098 67.652 18.4907 67.652 18.5749C67.652 18.6592 67.6188 18.74 67.5595 18.7999C67.5008 18.8513 67.4273 18.8828 67.3495 18.8899H65.6495C65.1192 18.89 64.5941 18.7846 64.1048 18.5798C63.6155 18.375 63.1719 18.075 62.7997 17.6972C62.4274 17.3194 62.1341 16.8713 61.9366 16.3791C61.7392 15.8868 61.6416 15.3602 61.6495 14.8299V0.309915C61.6495 0.227698 61.6822 0.148847 61.7403 0.0907108C61.7985 0.0325745 61.8773 -8.28007e-05 61.9595 -8.28007e-05H64.2895ZM79.4695 4.73991C82.2995 4.73991 84.2995 6.22992 84.6795 8.50992C84.6866 8.55069 84.6855 8.59247 84.6762 8.63281C84.667 8.67314 84.6497 8.71121 84.6255 8.74476C84.6012 8.77831 84.5705 8.80667 84.5352 8.82816C84.4998 8.84966 84.4605 8.86385 84.4195 8.86991H81.9395C81.8725 8.87064 81.8069 8.84959 81.7529 8.80992C81.6988 8.77025 81.659 8.71411 81.6395 8.64992C81.4948 8.19176 81.2 7.79565 80.8028 7.52537C80.4055 7.25509 79.9288 7.12636 79.4495 7.15991C78.2595 7.15991 77.4495 7.67991 77.4495 8.55991C77.4495 9.43991 78.1195 9.91992 79.2995 10.2199L81.6095 10.8299C84.1195 11.4699 85.2695 12.8999 85.2695 14.9999C85.2695 17.6799 82.9595 19.0899 79.8795 19.0899C76.7995 19.0899 74.3395 17.5499 74.0195 14.9699C74.0139 14.9292 74.0165 14.8877 74.0271 14.8479C74.0377 14.8082 74.056 14.7709 74.0812 14.7383C74.1063 14.7058 74.1377 14.6785 74.1735 14.6582C74.2092 14.6378 74.2487 14.6248 74.2895 14.6199H76.8695C76.9392 14.6204 77.0068 14.6443 77.0612 14.6878C77.1156 14.7314 77.1538 14.792 77.1695 14.8599C77.3448 15.4426 77.7219 15.9437 78.2331 16.2736C78.7444 16.6034 79.3564 16.7404 79.9595 16.6599C81.2795 16.6599 82.1895 16.1599 82.1895 15.1999C82.1895 14.2399 81.5795 13.7299 80.1895 13.3699L77.9395 12.7699C75.5395 12.1299 74.4095 10.6099 74.4095 8.58991C74.3495 6.27991 76.3895 4.73991 79.4695 4.73991ZM39.0295 4.73991C41.8495 4.73991 43.8495 6.22992 44.2395 8.50992C44.251 8.59338 44.229 8.678 44.1785 8.74539C44.128 8.81279 44.0529 8.85753 43.9695 8.86991H41.4895C41.4224 8.87064 41.357 8.84959 41.3029 8.80992C41.2488 8.77025 41.209 8.71411 41.1895 8.64992C41.0448 8.19176 40.75 7.79565 40.3528 7.52537C39.9555 7.25509 39.4788 7.12636 38.9995 7.15991C37.8095 7.15991 36.9995 7.67991 36.9995 8.55991C36.9995 9.43991 37.6595 9.91992 38.8395 10.2199L41.1495 10.8299C43.6595 11.4699 44.8195 12.8999 44.8195 14.9999C44.8195 17.6799 42.4995 19.0899 39.4195 19.0899C36.3395 19.0899 33.8895 17.5499 33.5595 14.9699C33.5539 14.9292 33.5565 14.8877 33.5671 14.8479C33.5777 14.8082 33.5961 14.7709 33.6212 14.7383C33.6463 14.7058 33.6777 14.6785 33.7134 14.6582C33.7492 14.6378 33.7887 14.6248 33.8295 14.6199H36.4095C36.4797 14.6185 36.5482 14.6417 36.603 14.6856C36.6578 14.7294 36.6955 14.7911 36.7095 14.8599C36.8866 15.4414 37.264 15.9414 37.7748 16.2709C38.2856 16.6005 38.8967 16.7383 39.4995 16.6599C40.8195 16.6599 41.7295 16.1599 41.7295 15.1999C41.7295 14.2399 41.1295 13.7299 39.7295 13.3699L37.4795 12.7699C35.0795 12.1299 33.9495 10.6099 33.9495 8.58991C33.9495 6.26991 35.9495 4.72992 39.0795 4.72992L39.0295 4.73991ZM52.9695 4.88992C57.0795 4.88992 59.9695 7.98991 59.8495 12.5199C59.8468 12.5905 59.8208 12.6582 59.7756 12.7125C59.7304 12.7667 59.6685 12.8045 59.5995 12.8199H48.8995C48.9172 13.3436 49.0398 13.8585 49.2599 14.3341C49.48 14.8096 49.7933 15.2362 50.1811 15.5886C50.5689 15.941 51.0235 16.2121 51.5179 16.3858C52.0123 16.5595 52.5365 16.6323 53.0595 16.5999C53.7318 16.6488 54.4045 16.5091 55.0017 16.1964C55.5988 15.8836 56.0968 15.4104 56.4395 14.8299C56.4606 14.7894 56.4903 14.7541 56.5266 14.7264C56.5629 14.6988 56.6049 14.6795 56.6495 14.6699H59.2395C59.3217 14.6699 59.4006 14.7026 59.4587 14.7607C59.5169 14.8188 59.5495 14.8977 59.5495 14.9799C59.5593 15.0193 59.5593 15.0605 59.5495 15.0999C59.0173 16.3898 58.0994 17.4838 56.9215 18.232C55.7437 18.9803 54.3634 19.3463 52.9695 19.2799C51.1103 19.2105 49.3504 18.4232 48.0596 17.0833C46.7688 15.7435 46.0476 13.9554 46.0476 12.0949C46.0476 10.2344 46.7688 8.44637 48.0596 7.10651C49.3504 5.76664 51.1103 4.97929 52.9695 4.90992V4.88992ZM88.3795 5.15992C88.4425 5.15988 88.5039 5.17899 88.5557 5.21472C88.6075 5.25044 88.6472 5.30108 88.6695 5.35991L92.5695 15.1699L96.4395 5.36992C96.463 5.31186 96.503 5.26197 96.5545 5.22642C96.6061 5.19087 96.6669 5.17122 96.7295 5.16992H99.3895C99.4717 5.16992 99.5506 5.20258 99.6087 5.26071C99.6669 5.31885 99.6995 5.3977 99.6995 5.47992C99.7097 5.52265 99.7097 5.56718 99.6995 5.60991L92.9295 21.6899C92.6452 22.3735 92.165 22.9576 91.5492 23.3687C90.9335 23.7798 90.2099 23.9994 89.4695 23.9999H87.4695C87.428 23.9999 87.3868 23.9916 87.3485 23.9754C87.3103 23.9592 87.2756 23.9355 87.2467 23.9056C87.2178 23.8758 87.1952 23.8404 87.1802 23.8016C87.1652 23.7628 87.1582 23.7215 87.1595 23.6799V21.5399C87.1595 21.4577 87.1922 21.3788 87.2503 21.3207C87.3085 21.2626 87.3873 21.2299 87.4695 21.2299H89.0595C89.3032 21.2293 89.5413 21.1568 89.744 21.0217C89.9468 20.8865 90.1052 20.6946 90.1995 20.4699L90.9395 18.7799L85.3595 5.59992C85.3432 5.5619 85.3347 5.521 85.3345 5.47964C85.3342 5.43828 85.3423 5.39729 85.3581 5.35908C85.374 5.32088 85.3973 5.28623 85.4267 5.25717C85.4562 5.22812 85.4911 5.20525 85.5295 5.18992C85.5694 5.18537 85.6097 5.18537 85.6495 5.18992L88.3795 5.15992Z"
            fill="#FFF" />
    </g>
    <defs>
        <clipPath id="clip0_644_11309">
            <rect width="100" height="24" fill="white" />
        </clipPath>
    </defs>
</svg>
